<?xml version="1.0" encoding="UTF-8" standalone="no"?>
<!-- Created with Inkscape (http://www.inkscape.org/) -->

<svg
   width="210mm"
   height="297mm"
   viewBox="0 0 210 297"
   version="1.1"
   id="svg1"
   sodipodi:docname="drop.svg"
   inkscape:version="1.4.2 (ebf0e940, 2025-05-08)"
   inkscape:export-filename="/Users/kanleafsnail/Documents/back.svg"
   inkscape:export-xdpi="96"
   inkscape:export-ydpi="96"
   xmlns:inkscape="http://www.inkscape.org/namespaces/inkscape"
   xmlns:sodipodi="http://sodipodi.sourceforge.net/DTD/sodipodi-0.dtd"
   xmlns="http://www.w3.org/2000/svg"
   xmlns:svg="http://www.w3.org/2000/svg"
   xmlns:rdf="http://www.w3.org/1999/02/22-rdf-syntax-ns#"
   xmlns:cc="http://creativecommons.org/ns#">
  <sodipodi:namedview
     id="namedview1"
     pagecolor="#ffffff"
     bordercolor="#999999"
     borderopacity="1"
     inkscape:showpageshadow="2"
     inkscape:pageopacity="0"
     inkscape:pagecheckerboard="0"
     inkscape:deskcolor="#d1d1d1"
     inkscape:document-units="mm"
     inkscape:zoom="0.42129996"
     inkscape:cx="636.12633"
     inkscape:cy="503.20441"
     inkscape:window-width="1528"
     inkscape:window-height="865"
     inkscape:window-x="208"
     inkscape:window-y="127"
     inkscape:window-maximized="0"
     inkscape:current-layer="svg1" />
  <defs
     id="defs1">
    <inkscape:path-effect
       effect="bspline"
       id="path-effect194"
       is_visible="true"
       lpeversion="1.3"
       weight="33.333333"
       steps="2"
       helper_size="0"
       apply_no_weight="true"
       apply_with_weight="true"
       only_selected="false"
       uniform="false" />
    <inkscape:path-effect
       effect="bspline"
       id="path-effect193"
       is_visible="true"
       lpeversion="1.3"
       weight="33.333333"
       steps="2"
       helper_size="0"
       apply_no_weight="true"
       apply_with_weight="true"
       only_selected="false"
       uniform="false" />
    <inkscape:path-effect
       effect="bspline"
       id="path-effect192"
       is_visible="true"
       lpeversion="1.3"
       weight="33.333333"
       steps="2"
       helper_size="0"
       apply_no_weight="true"
       apply_with_weight="true"
       only_selected="false"
       uniform="false" />
    <inkscape:path-effect
       effect="bspline"
       id="path-effect191"
       is_visible="true"
       lpeversion="1.3"
       weight="33.333333"
       steps="2"
       helper_size="0"
       apply_no_weight="true"
       apply_with_weight="true"
       only_selected="false"
       uniform="false" />
    <inkscape:path-effect
       effect="bspline"
       id="path-effect190"
       is_visible="true"
       lpeversion="1.3"
       weight="33.333333"
       steps="2"
       helper_size="0"
       apply_no_weight="true"
       apply_with_weight="true"
       only_selected="false"
       uniform="false" />
    <inkscape:path-effect
       effect="bspline"
       id="path-effect189"
       is_visible="true"
       lpeversion="1.3"
       weight="33.333333"
       steps="2"
       helper_size="0"
       apply_no_weight="true"
       apply_with_weight="true"
       only_selected="false"
       uniform="false" />
    <inkscape:path-effect
       effect="spiro"
       id="path-effect186"
       is_visible="true"
       lpeversion="1" />
    <inkscape:path-effect
       effect="bspline"
       id="path-effect185"
       is_visible="true"
       lpeversion="1.3"
       weight="33.333333"
       steps="2"
       helper_size="0"
       apply_no_weight="true"
       apply_with_weight="true"
       only_selected="false"
       uniform="false" />
    <inkscape:path-effect
       effect="bspline"
       id="path-effect184"
       is_visible="true"
       lpeversion="1.3"
       weight="33.333333"
       steps="2"
       helper_size="0"
       apply_no_weight="true"
       apply_with_weight="true"
       only_selected="false"
       uniform="false" />
    <inkscape:path-effect
       effect="spiro"
       id="path-effect178"
       is_visible="true"
       lpeversion="1" />
    <inkscape:path-effect
       effect="spiro"
       id="path-effect177"
       is_visible="true"
       lpeversion="1" />
    <inkscape:path-effect
       effect="spiro"
       id="path-effect176"
       is_visible="true"
       lpeversion="1" />
    <inkscape:path-effect
       effect="spiro"
       id="path-effect175"
       is_visible="true"
       lpeversion="1" />
    <inkscape:path-effect
       effect="spiro"
       id="path-effect171"
       is_visible="true"
       lpeversion="1" />
    <inkscape:path-effect
       effect="spiro"
       id="path-effect170"
       is_visible="true"
       lpeversion="1" />
    <inkscape:path-effect
       effect="bspline"
       id="path-effect169"
       is_visible="true"
       lpeversion="1.3"
       weight="33.333333"
       steps="2"
       helper_size="0"
       apply_no_weight="true"
       apply_with_weight="true"
       only_selected="false"
       uniform="false" />
    <inkscape:path-effect
       effect="bspline"
       id="path-effect168"
       is_visible="true"
       lpeversion="1.3"
       weight="33.333333"
       steps="2"
       helper_size="0"
       apply_no_weight="true"
       apply_with_weight="true"
       only_selected="false"
       uniform="false" />
    <inkscape:path-effect
       effect="bspline"
       id="path-effect167"
       is_visible="true"
       lpeversion="1.3"
       weight="33.333333"
       steps="2"
       helper_size="0"
       apply_no_weight="true"
       apply_with_weight="true"
       only_selected="false"
       uniform="false" />
    <inkscape:path-effect
       effect="bspline"
       id="path-effect166"
       is_visible="true"
       lpeversion="1.3"
       weight="33.333333"
       steps="2"
       helper_size="0"
       apply_no_weight="true"
       apply_with_weight="true"
       only_selected="false"
       uniform="false" />
    <inkscape:path-effect
       effect="bspline"
       id="path-effect156"
       is_visible="true"
       lpeversion="1.3"
       weight="33.333333"
       steps="2"
       helper_size="0"
       apply_no_weight="true"
       apply_with_weight="true"
       only_selected="false"
       uniform="false" />
    <inkscape:path-effect
       effect="bspline"
       id="path-effect155"
       is_visible="true"
       lpeversion="1.3"
       weight="33.333333"
       steps="2"
       helper_size="0"
       apply_no_weight="true"
       apply_with_weight="true"
       only_selected="false"
       uniform="false" />
    <inkscape:path-effect
       effect="bspline"
       id="path-effect154"
       is_visible="true"
       lpeversion="1.3"
       weight="33.333333"
       steps="2"
       helper_size="0"
       apply_no_weight="true"
       apply_with_weight="true"
       only_selected="false"
       uniform="false" />
    <inkscape:path-effect
       effect="bspline"
       id="path-effect153"
       is_visible="true"
       lpeversion="1.3"
       weight="33.333333"
       steps="2"
       helper_size="0"
       apply_no_weight="true"
       apply_with_weight="true"
       only_selected="false"
       uniform="false" />
    <clipPath
       clipPathUnits="userSpaceOnUse"
       id="clipPath5">
      <path
         id="path5"
         style="stroke-width:0.1;stroke-linecap:square;paint-order:markers fill stroke;stop-color:#000000"
         d="m 438.25066,553.76374 859.87054,0 v 201.39554 l -859.87054,0 z"
         sodipodi:nodetypes="ccccc" />
    </clipPath>
    <clipPath
       clipPathUnits="userSpaceOnUse"
       id="clipPath52">
      <path
         id="path52"
         style="stroke-width:0.1;stroke-linecap:square;paint-order:markers fill stroke;stop-color:#000000"
         d="m -880.82767,-187.29769 h 1640.84 v 73.28155 h -1640.84 z" />
    </clipPath>
    <inkscape:path-effect
       effect="bspline"
       id="path-effect84"
       is_visible="true"
       lpeversion="1.3"
       weight="33.333333"
       steps="2"
       helper_size="0"
       apply_no_weight="true"
       apply_with_weight="true"
       only_selected="false"
       uniform="false" />
    <inkscape:path-effect
       effect="bspline"
       id="path-effect83"
       is_visible="true"
       lpeversion="1.3"
       weight="33.333333"
       steps="2"
       helper_size="0"
       apply_no_weight="true"
       apply_with_weight="true"
       only_selected="false"
       uniform="false" />
    <inkscape:path-effect
       effect="bspline"
       id="path-effect82"
       is_visible="true"
       lpeversion="1.3"
       weight="33.333333"
       steps="2"
       helper_size="0"
       apply_no_weight="true"
       apply_with_weight="true"
       only_selected="false"
       uniform="false" />
    <inkscape:path-effect
       effect="bspline"
       id="path-effect22"
       is_visible="true"
       lpeversion="1.3"
       weight="33.333333"
       steps="2"
       helper_size="0"
       apply_no_weight="true"
       apply_with_weight="true"
       only_selected="false"
       uniform="false" />
    <inkscape:path-effect
       effect="bspline"
       id="path-effect21"
       is_visible="true"
       lpeversion="1.3"
       weight="33.333333"
       steps="2"
       helper_size="0"
       apply_no_weight="true"
       apply_with_weight="true"
       only_selected="false"
       uniform="false" />
    <inkscape:path-effect
       effect="bspline"
       id="path-effect20"
       is_visible="true"
       lpeversion="1.3"
       weight="33.333333"
       steps="2"
       helper_size="0"
       apply_no_weight="true"
       apply_with_weight="true"
       only_selected="false"
       uniform="false" />
    <inkscape:path-effect
       effect="bspline"
       id="path-effect8"
       is_visible="true"
       lpeversion="1.3"
       weight="33.333333"
       steps="2"
       helper_size="0"
       apply_no_weight="true"
       apply_with_weight="true"
       only_selected="false"
       uniform="false" />
    <inkscape:path-effect
       effect="spiro"
       id="path-effect7"
       is_visible="true"
       lpeversion="1" />
    <inkscape:path-effect
       effect="spiro"
       id="path-effect6"
       is_visible="true"
       lpeversion="1" />
    <inkscape:path-effect
       effect="spiro"
       id="path-effect5"
       is_visible="true"
       lpeversion="1" />
    <inkscape:path-effect
       effect="spiro"
       id="path-effect4"
       is_visible="true"
       lpeversion="1" />
  </defs>
  <metadata
     id="metadata5">
    <rdf:RDF>
      <cc:Work
         rdf:about="">
        <cc:license
           rdf:resource="http://creativecommons.org/licenses/by/4.0/" />
      </cc:Work>
      <cc:License
         rdf:about="http://creativecommons.org/licenses/by/4.0/">
        <cc:permits
           rdf:resource="http://creativecommons.org/ns#Reproduction" />
        <cc:permits
           rdf:resource="http://creativecommons.org/ns#Distribution" />
        <cc:requires
           rdf:resource="http://creativecommons.org/ns#Notice" />
        <cc:requires
           rdf:resource="http://creativecommons.org/ns#Attribution" />
        <cc:permits
           rdf:resource="http://creativecommons.org/ns#DerivativeWorks" />
      </cc:License>
    </rdf:RDF>
  </metadata>
  <rect
     style="fill:#0aa9d5;fill-opacity:0.64354837;fill-rule:evenodd;stroke:#4d3f33;stroke-width:0;stroke-linecap:round;stroke-miterlimit:20;stroke-dasharray:none;stroke-opacity:1"
     id="rect194"
     width="276.95529"
     height="194.0571"
     x="-27.004709"
     y="68.453796" />
  <path
     id="rect3"
     style="fill:#42b2e6;fill-opacity:1;fill-rule:evenodd;stroke:none;stroke-width:1.06725;stroke-linecap:round;stroke-miterlimit:20"
     d="m 201.90964,-85.949468 c -0.87524,-0.0043 -1.74989,0.0648 -2.61288,0.217558 -3.21023,0.568253 -6.06161,2.25344 -8.28097,4.360974 -2.21936,2.107533 -3.86181,4.6274 -5.32024,7.193359 -1.45842,2.565959 -2.75534,5.20555 -4.38884,7.689453 -1.63348,2.483903 -3.63486,4.833231 -6.2534,6.554639 -3.66929,2.412162 -8.37,3.441174 -12.95862,3.360518 -4.58864,-0.08066 -9.08531,-1.209063 -13.31477,-2.768306 -8.4589,-3.118487 -16.06128,-7.973596 -24.83348,-10.338388 -3.81932,-1.029607 -7.84473,-1.568106 -11.827,-1.273307 -3.98228,0.294799 -7.92333,1.45164 -11.10588,3.566708 -3.696794,2.456833 -6.205487,6.080355 -7.793729,9.89707 -1.588231,3.816715 -2.328139,7.856395 -3.055827,11.868009 -0.727689,4.011614 -1.459527,8.051905 -3.033385,11.873177 -1.573856,3.821274 -4.061167,7.453601 -7.739385,9.931695 -4.352414,2.932316 -10.180326,4.021228 -15.589802,3.185335 -5.409476,-0.835893 -10.360284,-3.518718 -13.894746,-7.19801 -2.406965,-2.505594 -4.182673,-5.443992 -6.66447,-7.893059 -1.240897,-1.224534 -2.665766,-2.326457 -4.315604,-3.097486 -1.649836,-0.771028 -3.538043,-1.198878 -5.400559,-1.048514 -2.180174,0.176008 -4.200561,1.127966 -5.879545,2.357478 -1.678987,1.229513 -3.06163,2.733441 -4.45499,4.211113 -1.393358,1.477672 -2.825015,2.952951 -4.575473,4.103626 -1.750458,1.150675 -3.867482,1.964957 -6.05673,1.939934 -1.478171,-0.0169 -2.9364432,-0.4181 -4.2092941,-1.075904 -1.2728498,-0.657804 -2.3646409,-1.566316 -3.2566362,-2.597775 -1.7839926,-2.062916 -2.7558152,-4.570338 -3.520049,-7.069336 -0.76423486,-2.498998 -1.35541099,-5.053402 -2.50360639,-7.437272 -1.14819651,-2.38387 -2.93310471,-4.63297 -5.51218371,-5.897831 -1.9846889,-0.973354 -4.3461606,-1.302025 -6.6024556,-1.045931 -2.256295,0.256094 -4.405506,1.079006 -6.246316,2.248958 -0.312922,0.198882 -0.616412,0.40664 -0.910724,0.623218 V 123.80467 c 0.263583,-0.073 0.528497,-0.14351 0.794373,-0.21136 3.827604,-0.97684 7.864087,-1.39484 11.8276021,-1.01596 3.9635173,0.37888 7.85128103,1.57179 11.0840207,3.61374 4.3553132,2.751 7.3376942,6.90523 9.2861992,11.28509 1.948505,4.37987 2.953887,9.02767 4.056324,13.6276 1.10244,4.59992 2.32972,9.22701 4.675878,13.45499 2.34616,4.22797 5.92699,8.07562 10.731427,10.17767 5.21037,2.27966 11.419036,2.30817 17.063972,1.04903 5.644935,-1.25913 10.837023,-3.71265 15.880385,-6.2637 5.043361,-2.55104 10.04083,-5.23825 15.492943,-7.03368 5.45211,-1.79542 11.478111,-2.6593 17.132499,-1.43298 3.883847,0.84233 7.423337,2.62946 10.646957,4.70359 3.22363,2.07412 6.17901,4.44739 9.29624,6.64248 3.11724,2.1951 6.43874,4.23189 10.16384,5.51026 3.72512,1.27838 7.90853,1.75577 11.75674,0.79634 4.12575,-1.02864 7.55096,-3.6178 10.14199,-6.60942 2.59103,-2.99162 4.45911,-6.40278 6.45362,-9.72602 1.99451,-3.32324 4.17293,-6.62861 7.24564,-9.24802 1.53635,-1.3097 3.29056,-2.43625 5.23577,-3.22719 1.9452,-0.79094 4.08533,-1.24071 6.22979,-1.19889 3.02477,0.059 5.9425,1.08818 8.48709,2.52026 2.54459,1.43208 4.76198,3.25918 6.95446,5.08341 2.19248,1.82423 4.39087,3.66658 6.9078,5.1356 2.51693,1.46903 5.39715,2.55956 8.41801,2.70681 2.82777,0.13784 5.63804,-0.555 8.2231,-1.56734 2.58503,-1.01234 4.98828,-2.34088 7.45233,-3.56258 0.24647,-0.12219 0.49387,-0.24343 0.7424,-0.36328 V -74.110915 c -1.48772,-1.441158 -2.9394,-2.912554 -4.46857,-4.320149 -2.4264,-2.233499 -5.08404,-4.328558 -8.20419,-5.757788 -2.34011,-1.071923 -4.97133,-1.747584 -7.59705,-1.760616 z" />
  <path
     id="path179"
     style="fill:none;fill-opacity:1;fill-rule:evenodd;stroke:none;stroke-width:0.998303;stroke-linecap:round;stroke-miterlimit:20"
     d="M 210.92833 204.66549 L 210.92832 10.474233 C 209.62662 9.033075 208.35645 7.561679 207.01848 6.1540841 C 204.89547 3.920585 202.57013 1.825526 199.84011 0.39629603 C 197.7926 -0.67562697 195.49038 -1.351288 193.19297 -1.36432 L 193.19297 -1.36432 C 192.42717 -1.36862 191.66188 -1.29952 190.9068 -1.146762 C 188.09796 -0.57850897 185.60311 1.106678 183.66125 3.214212 C 181.71939 5.3217451 180.28231 7.841612 179.00624 10.407571 C 177.73016 12.97353 176.59541 15.613121 175.16616 18.097024 C 173.73692 20.580927 171.98579 22.930255 169.69466 24.651663 C 166.48417 27.063825 162.37122 28.092837 158.35634 28.012181 C 154.34145 27.931521 150.40702 26.803118 146.7064 25.243875 C 139.30517 22.125388 132.65336 17.270279 124.97801 14.905487 C 121.63624 13.87588 118.11415 13.337381 114.62981 13.63218 C 111.14546 13.926979 107.69718 15.08382 104.91257 17.198888 C 101.67801 19.655721 99.483003 23.279243 98.09335 27.095958 C 96.703701 30.912673 96.056313 34.952353 95.419612 38.963967 C 94.78291 42.975581 94.142578 47.015872 92.76551 50.837144 C 91.388443 54.658417 89.212136 58.290744 85.99383 60.768838 C 82.185625 63.701154 77.086414 64.790066 72.353319 63.954173 C 67.620224 63.11828 63.288448 60.435455 60.195922 56.756163 C 58.089915 54.250569 56.536235 51.312172 54.364753 48.863105 C 53.279013 47.638571 52.032304 46.536648 50.588756 45.765619 C 49.145209 44.994591 47.493097 44.566741 45.863463 44.717105 C 43.955891 44.893113 42.188126 45.845071 40.719075 47.074583 C 39.250023 48.304096 38.04026 49.808024 36.821121 51.285696 C 35.601983 52.763368 34.349336 54.238646 32.817748 55.389321 C 31.286161 56.539996 29.433842 57.354278 27.51833 57.329255 C 26.224984 57.312355 24.949049 56.911155 23.835351 56.253351 C 22.721653 55.595547 21.766376 54.687035 20.985912 53.655577 C 19.424984 51.592661 18.574674 49.085239 17.905997 46.586241 C 17.23732 44.087243 16.720062 41.532839 15.715433 39.148969 C 14.710803 36.765099 13.149073 34.515999 10.892472 33.251138 C 9.1559416 32.277784 7.0897399 31.949113 5.1155637 32.205207 C 3.1413874 32.461301 1.260906 33.284213 -0.34973582 34.454165 C -0.62353162 34.653047 -0.88907402 34.860805 -1.1465864 35.077383 L -1.1465864 204.66548 " />
  <path
     id="path180"
     style="fill:none;fill-opacity:1;fill-rule:evenodd;stroke:none;stroke-width:0.998303;stroke-linecap:round;stroke-miterlimit:20"
     d="M -1.1465864 204.66548 L -1.1465864 208.38981 C -0.91596062 208.31681 -0.68417022 208.2463 -0.45153842 208.17845 C 2.8974755 207.20161 6.4292517 206.78361 9.8971836 207.16249 C 13.365117 207.54137 16.766769 208.73428 19.595299 210.77623 C 23.406039 213.52723 26.015514 217.68146 27.720385 222.06132 C 29.425256 226.44119 30.304929 231.08899 31.269522 235.68892 C 32.234116 240.28884 33.307941 244.91593 35.360745 249.14391 C 37.413549 253.37188 40.546646 257.21953 44.750353 259.32158 C 49.309237 261.60124 54.741595 261.62975 59.680708 260.37061 C 64.619821 259.11148 69.162709 256.65796 73.575467 254.10691 C 77.988225 251.55587 82.360829 248.86866 87.131229 247.07323 C 91.901628 245.27781 97.17416 244.41393 102.12153 245.64025 C 105.51976 246.48258 108.61668 248.26971 111.43724 250.34384 C 114.25779 252.41796 116.84364 254.79123 119.57111 256.98632 C 122.29858 259.18142 125.20477 261.21821 128.4641 262.49658 C 131.72344 263.77496 135.38377 264.25235 138.75081 263.29292 C 142.3607 262.26428 145.35763 259.67512 147.62469 256.6835 C 149.89175 253.69188 151.52625 250.28072 153.27137 246.95748 C 155.0165 243.63424 156.92253 240.32887 159.61104 237.70946 C 160.95529 236.39976 162.49017 235.27321 164.19216 234.48227 C 165.89414 233.69133 167.76666 233.24156 169.64299 233.28338 C 172.28956 233.34238 174.84246 234.37156 177.06889 235.80364 C 179.29531 237.23572 181.23545 239.06282 183.15379 240.88705 C 185.07213 242.71128 186.99564 244.55363 189.19786 246.02265 C 191.40009 247.49168 193.92017 248.58221 196.56331 248.72946 C 199.03751 248.8673 201.49639 248.17446 203.75822 247.16212 C 206.02004 246.14978 208.12279 244.82124 210.27875 243.59954 C 210.4944 243.47735 210.71086 243.35611 210.92832 243.23626 L 210.92833 204.66549 " />
  <path
     style="fill:none;fill-opacity:1;fill-rule:evenodd;stroke:#4d3f33;stroke-width:0;stroke-linecap:round;stroke-miterlimit:20;stroke-dasharray:none;stroke-opacity:1"
     d="m -12.332835,240.75838 c 6.2557888,-10.72421 12.51157308,-21.44841 19.5717507,-22.43137 7.0601773,-0.98297 14.9244393,7.77496 24.7550773,6.88117 9.830638,-0.89379 21.627026,-11.43905 29.402113,-12.7795 7.775087,-1.34044 11.528484,6.52382 19.661127,5.27256 8.132643,-1.25126 20.643967,-11.61779 28.776527,-13.49446 8.13256,-1.87667 11.88596,4.73646 21.62726,2.68088 9.74131,-2.05558 25.46983,-12.77957 36.10472,-12.60072 10.63489,0.17885 16.17562,11.2603 24.57636,11.88578 8.40074,0.62548 19.66093,-9.20484 30.92134,-19.03536"
     id="path192"
     inkscape:path-effect="#path-effect193"
     inkscape:original-d="m -12.332835,240.75838 c 6.2557861,-10.72421 12.51157173,-21.44841 18.7673574,-32.17261 7.8645736,8.75827 15.7288326,17.5162 23.5932486,26.2743 11.796861,-10.54568 23.593248,-21.09094 35.389873,-31.63641 3.753545,7.86458 7.506943,15.72884 11.260415,23.59325 12.51182,-10.36693 25.023141,-20.73346 37.534711,-31.10019 3.75355,6.61339 7.50694,13.22652 11.26042,19.83978 15.72914,-10.72442 31.45766,-21.44841 47.18649,-32.17261 5.54095,11.0819 11.08168,22.16335 16.62252,33.24503 11.26064,-9.83072 22.52083,-19.66104 33.78124,-29.49156" />
  <path
     style="fill:#006680;fill-opacity:1;fill-rule:evenodd;stroke:#4d3f33;stroke-width:0;stroke-linecap:round;stroke-miterlimit:20;stroke-dasharray:none;stroke-opacity:1"
     d="m -13.834571,277.23546 c -0.932668,-13.13507 2.02078,-26.96964 3.8861237,-42.20338 1.8653434,-15.23374 2.6425357,-31.86566 11.8916705,-39.71577 9.2491348,-7.8501 26.9691228,-6.91747 39.4049378,8.23869 12.435815,15.15615 19.585976,44.53399 31.944078,45.31123 12.358101,0.77724 29.922641,-27.04623 44.690161,-26.57989 14.76753,0.46635 26.73629,29.22246 41.4261,31.39873 14.68982,2.17627 32.09891,-22.22756 43.99066,-25.49197 11.89175,-3.2644 18.26485,14.61137 21.91781,29.92279 3.65296,15.31143 4.5856,28.05762 -1.47687,36.06306 -6.06247,8.00544 -19.11955,11.26971 -58.1368,13.99001 -39.01725,2.72031 -103.991792,4.89649 -138.889157,-0.23332 -34.897365,-5.12981 -39.716046,-17.56512 -40.648714,-30.70018 z"
     id="path194"
     sodipodi:nodetypes="ccccccccccccc"
     inkscape:original-d="m -17.720685,277.93495 c 2.953447,-13.83456 5.906895,-27.66913 8.8603425,-41.5037 0.7772387,-16.63291 1.5544308,-33.26483 2.331669,-49.89773 17.7210315,0.93269 35.4410195,1.86532 53.1620555,2.79801 7.150593,29.37962 14.300754,58.75746 21.451354,88.1371 17.565606,-27.82516 35.130144,-55.64863 52.695724,-83.47376 11.96947,28.75782 23.93823,57.51393 35.90771,86.27177 17.41014,-24.40531 34.81924,-48.80913 52.22938,-73.21442 6.37335,17.87648 12.74646,35.75225 19.11969,53.62838 0.93268,12.74672 1.86533,25.49291 2.798,38.23938 -13.05761,3.2644 -26.11469,6.52867 -39.17204,9.79302 -64.97715,2.17625 -129.951692,4.35245 -194.9275368,6.52867 -4.8188792,-12.43584 -9.6375652,-24.87115 -14.4563482,-37.30672 z"
     inkscape:path-effect="#path-effect194" />
</svg>
